<svg width="255" height="24" viewBox="0 0 255 24" fill="none" xmlns="http://www.w3.org/2000/svg">
<path d="M10.76 23L6.672 15.58H5.524V23H0.736V3.344H8.772C10.3213 3.344 11.6373 3.61467 12.72 4.156C13.8213 4.69733 14.6427 5.444 15.184 6.396C15.7253 7.32933 15.996 8.37467 15.996 9.532C15.996 10.8387 15.6227 12.0053 14.876 13.032C14.148 14.0587 13.0653 14.7867 11.628 15.216L16.164 23H10.76ZM5.524 12.192H8.492C9.36933 12.192 10.0227 11.9773 10.452 11.548C10.9 11.1187 11.124 10.512 11.124 9.728C11.124 8.98133 10.9 8.39333 10.452 7.964C10.0227 7.53467 9.36933 7.32 8.492 7.32H5.524V12.192ZM18.0496 15.16C18.0496 13.5547 18.3483 12.1453 18.9456 10.932C19.5616 9.71867 20.3923 8.78533 21.4376 8.132C22.483 7.47867 23.6496 7.152 24.9376 7.152C26.039 7.152 27.0003 7.376 27.8216 7.824C28.6616 8.272 29.3056 8.86 29.7536 9.588V7.376H34.5416V23H29.7536V20.788C29.287 21.516 28.6336 22.104 27.7936 22.552C26.9723 23 26.011 23.224 24.9096 23.224C23.6403 23.224 22.483 22.8973 21.4376 22.244C20.3923 21.572 19.5616 20.6293 18.9456 19.416C18.3483 18.184 18.0496 16.7653 18.0496 15.16ZM29.7536 15.188C29.7536 13.9933 29.4176 13.0507 28.7456 12.36C28.0923 11.6693 27.2896 11.324 26.3376 11.324C25.3856 11.324 24.5736 11.6693 23.9016 12.36C23.2483 13.032 22.9216 13.9653 22.9216 15.16C22.9216 16.3547 23.2483 17.3067 23.9016 18.016C24.5736 18.7067 25.3856 19.052 26.3376 19.052C27.2896 19.052 28.0923 18.7067 28.7456 18.016C29.4176 17.3253 29.7536 16.3827 29.7536 15.188ZM37.0535 15.188C37.0535 13.564 37.3802 12.1453 38.0335 10.932C38.7055 9.71867 39.6295 8.78533 40.8055 8.132C42.0002 7.47867 43.3629 7.152 44.8935 7.152C46.8535 7.152 48.4869 7.66533 49.7935 8.692C51.1189 9.71867 51.9869 11.1653 52.3975 13.032H47.3015C46.8722 11.8373 46.0415 11.24 44.8095 11.24C43.9322 11.24 43.2322 11.5853 42.7095 12.276C42.1869 12.948 41.9255 13.9187 41.9255 15.188C41.9255 16.4573 42.1869 17.4373 42.7095 18.128C43.2322 18.8 43.9322 19.136 44.8095 19.136C46.0415 19.136 46.8722 18.5387 47.3015 17.344H52.3975C51.9869 19.1733 51.1189 20.6107 49.7935 21.656C48.4682 22.7013 46.8349 23.224 44.8935 23.224C43.3629 23.224 42.0002 22.8973 40.8055 22.244C39.6295 21.5907 38.7055 20.6573 38.0335 19.444C37.3802 18.2307 37.0535 16.812 37.0535 15.188ZM54.0067 15.188C54.0067 13.564 54.3333 12.1453 54.9867 10.932C55.6587 9.71867 56.5827 8.78533 57.7587 8.132C58.9533 7.47867 60.316 7.152 61.8467 7.152C63.8067 7.152 65.44 7.66533 66.7467 8.692C68.072 9.71867 68.94 11.1653 69.3507 13.032H64.2547C63.8253 11.8373 62.9947 11.24 61.7627 11.24C60.8853 11.24 60.1853 11.5853 59.6627 12.276C59.14 12.948 58.8787 13.9187 58.8787 15.188C58.8787 16.4573 59.14 17.4373 59.6627 18.128C60.1853 18.8 60.8853 19.136 61.7627 19.136C62.9947 19.136 63.8253 18.5387 64.2547 17.344H69.3507C68.94 19.1733 68.072 20.6107 66.7467 21.656C65.4213 22.7013 63.788 23.224 61.8467 23.224C60.316 23.224 58.9533 22.8973 57.7587 22.244C56.5827 21.5907 55.6587 20.6573 54.9867 19.444C54.3333 18.2307 54.0067 16.812 54.0067 15.188ZM79.0238 23.224C77.4931 23.224 76.1118 22.8973 74.8798 22.244C73.6664 21.5907 72.7051 20.6573 71.9958 19.444C71.3051 18.2307 70.9598 16.812 70.9598 15.188C70.9598 13.5827 71.3144 12.1733 72.0238 10.96C72.7331 9.728 73.7038 8.78533 74.9358 8.132C76.1678 7.47867 77.5491 7.152 79.0798 7.152C80.6104 7.152 81.9918 7.47867 83.2238 8.132C84.4558 8.78533 85.4264 9.728 86.1358 10.96C86.8451 12.1733 87.1998 13.5827 87.1998 15.188C87.1998 16.7933 86.8358 18.212 86.1078 19.444C85.3984 20.6573 84.4184 21.5907 83.1678 22.244C81.9358 22.8973 80.5544 23.224 79.0238 23.224ZM79.0238 19.08C79.9384 19.08 80.7131 18.744 81.3478 18.072C82.0011 17.4 82.3278 16.4387 82.3278 15.188C82.3278 13.9373 82.0104 12.976 81.3758 12.304C80.7598 11.632 79.9944 11.296 79.0798 11.296C78.1464 11.296 77.3718 11.632 76.7558 12.304C76.1398 12.9573 75.8318 13.9187 75.8318 15.188C75.8318 16.4387 76.1304 17.4 76.7278 18.072C77.3438 18.744 78.1091 19.08 79.0238 19.08ZM96.8519 23.224C95.3212 23.224 93.9399 22.8973 92.7079 22.244C91.4946 21.5907 90.5332 20.6573 89.8239 19.444C89.1332 18.2307 88.7879 16.812 88.7879 15.188C88.7879 13.5827 89.1426 12.1733 89.8519 10.96C90.5612 9.728 91.5319 8.78533 92.7639 8.132C93.9959 7.47867 95.3772 7.152 96.9079 7.152C98.4386 7.152 99.8199 7.47867 101.052 8.132C102.284 8.78533 103.255 9.728 103.964 10.96C104.673 12.1733 105.028 13.5827 105.028 15.188C105.028 16.7933 104.664 18.212 103.936 19.444C103.227 20.6573 102.247 21.5907 100.996 22.244C99.7639 22.8973 98.3826 23.224 96.8519 23.224ZM96.8519 19.08C97.7666 19.08 98.5412 18.744 99.1759 18.072C99.8292 17.4 100.156 16.4387 100.156 15.188C100.156 13.9373 99.8386 12.976 99.2039 12.304C98.5879 11.632 97.8226 11.296 96.9079 11.296C95.9746 11.296 95.1999 11.632 94.5839 12.304C93.9679 12.9573 93.6599 13.9187 93.6599 15.188C93.6599 16.4387 93.9586 17.4 94.5559 18.072C95.1719 18.744 95.9372 19.08 96.8519 19.08ZM117.088 7.208C118.917 7.208 120.373 7.80533 121.456 9C122.557 10.176 123.108 11.8 123.108 13.872V23H118.348V14.516C118.348 13.4707 118.077 12.6587 117.536 12.08C116.995 11.5013 116.267 11.212 115.352 11.212C114.437 11.212 113.709 11.5013 113.168 12.08C112.627 12.6587 112.356 13.4707 112.356 14.516V23H107.568V7.376H112.356V9.448C112.841 8.75733 113.495 8.216 114.316 7.824C115.137 7.41333 116.061 7.208 117.088 7.208ZM154.629 3.344V23H149.841V11.212L145.445 23H141.581L137.157 11.184V23H132.369V3.344H138.025L143.541 16.952L149.001 3.344H154.629ZM157.12 15.16C157.12 13.5547 157.419 12.1453 158.016 10.932C158.632 9.71867 159.463 8.78533 160.508 8.132C161.553 7.47867 162.72 7.152 164.008 7.152C165.109 7.152 166.071 7.376 166.892 7.824C167.732 8.272 168.376 8.86 168.824 9.588V7.376H173.612V23H168.824V20.788C168.357 21.516 167.704 22.104 166.864 22.552C166.043 23 165.081 23.224 163.98 23.224C162.711 23.224 161.553 22.8973 160.508 22.244C159.463 21.572 158.632 20.6293 158.016 19.416C157.419 18.184 157.12 16.7653 157.12 15.16ZM168.824 15.188C168.824 13.9933 168.488 13.0507 167.816 12.36C167.163 11.6693 166.36 11.324 165.408 11.324C164.456 11.324 163.644 11.6693 162.972 12.36C162.319 13.032 161.992 13.9653 161.992 15.16C161.992 16.3547 162.319 17.3067 162.972 18.016C163.644 18.7067 164.456 19.052 165.408 19.052C166.36 19.052 167.163 18.7067 167.816 18.016C168.488 17.3253 168.824 16.3827 168.824 15.188ZM176.124 15.188C176.124 13.564 176.451 12.1453 177.104 10.932C177.776 9.71867 178.7 8.78533 179.876 8.132C181.071 7.47867 182.433 7.152 183.964 7.152C185.924 7.152 187.557 7.66533 188.864 8.692C190.189 9.71867 191.057 11.1653 191.468 13.032H186.372C185.943 11.8373 185.112 11.24 183.88 11.24C183.003 11.24 182.303 11.5853 181.78 12.276C181.257 12.948 180.996 13.9187 180.996 15.188C180.996 16.4573 181.257 17.4373 181.78 18.128C182.303 18.8 183.003 19.136 183.88 19.136C185.112 19.136 185.943 18.5387 186.372 17.344H191.468C191.057 19.1733 190.189 20.6107 188.864 21.656C187.539 22.7013 185.905 23.224 183.964 23.224C182.433 23.224 181.071 22.8973 179.876 22.244C178.7 21.5907 177.776 20.6573 177.104 19.444C176.451 18.2307 176.124 16.812 176.124 15.188ZM203.633 7.208C205.425 7.208 206.862 7.80533 207.945 9C209.028 10.176 209.569 11.8 209.569 13.872V23H204.809V14.516C204.809 13.4707 204.538 12.6587 203.997 12.08C203.456 11.5013 202.728 11.212 201.813 11.212C200.898 11.212 200.17 11.5013 199.629 12.08C199.088 12.6587 198.817 13.4707 198.817 14.516V23H194.029V2.28H198.817V9.476C199.302 8.78533 199.965 8.23467 200.805 7.824C201.645 7.41333 202.588 7.208 203.633 7.208ZM215.304 5.752C214.464 5.752 213.773 5.50933 213.232 5.024C212.709 4.52 212.448 3.904 212.448 3.176C212.448 2.42933 212.709 1.81333 213.232 1.328C213.773 0.823998 214.464 0.571998 215.304 0.571998C216.125 0.571998 216.797 0.823998 217.32 1.328C217.861 1.81333 218.132 2.42933 218.132 3.176C218.132 3.904 217.861 4.52 217.32 5.024C216.797 5.50933 216.125 5.752 215.304 5.752ZM217.684 7.376V23H212.896V7.376H217.684ZM230.674 7.208C232.503 7.208 233.959 7.80533 235.042 9C236.143 10.176 236.694 11.8 236.694 13.872V23H231.934V14.516C231.934 13.4707 231.663 12.6587 231.122 12.08C230.581 11.5013 229.853 11.212 228.938 11.212C228.023 11.212 227.295 11.5013 226.754 12.08C226.213 12.6587 225.942 13.4707 225.942 14.516V23H221.154V7.376H225.942V9.448C226.427 8.75733 227.081 8.216 227.902 7.824C228.723 7.41333 229.647 7.208 230.674 7.208ZM254.749 14.936C254.749 15.384 254.721 15.8507 254.665 16.336H243.829C243.904 17.3067 244.212 18.0533 244.753 18.576C245.313 19.08 245.994 19.332 246.797 19.332C247.992 19.332 248.822 18.828 249.289 17.82H254.385C254.124 18.8467 253.648 19.7707 252.957 20.592C252.285 21.4133 251.436 22.0573 250.409 22.524C249.382 22.9907 248.234 23.224 246.965 23.224C245.434 23.224 244.072 22.8973 242.877 22.244C241.682 21.5907 240.749 20.6573 240.077 19.444C239.405 18.2307 239.069 16.812 239.069 15.188C239.069 13.564 239.396 12.1453 240.049 10.932C240.721 9.71867 241.654 8.78533 242.849 8.132C244.044 7.47867 245.416 7.152 246.965 7.152C248.477 7.152 249.821 7.46933 250.997 8.104C252.173 8.73867 253.088 9.644 253.741 10.82C254.413 11.996 254.749 13.368 254.749 14.936ZM249.849 13.676C249.849 12.8547 249.569 12.2013 249.009 11.716C248.449 11.2307 247.749 10.988 246.909 10.988C246.106 10.988 245.425 11.2213 244.865 11.688C244.324 12.1547 243.988 12.8173 243.857 13.676H249.849Z" fill="white"/>
</svg>
